# xmcd CD database file
#
# Track frame offsets:
#	150
#	6765
#	21888
#	39795
#	60570
#	78292
#	95325
#	115095
#	129792
#	142113
#	161328
#	177487
#
# Disc length: 2654 seconds
#
# Revision: 1
# Processed by: cddbd v1.5.1PL0 Copyright (c) Steve Scherf et al.
# Submitted via: CDex 1.51
#
DISCID=890a5c0c
DTITLE=Josh White Jr. - House of the Rising Son
DYEAR=1900
DGENRE=Blues
TTITLE0=Gonna Live the Life
TTITLE1=I Believe I'll Make a Change
TTITLE2=House of the Rising Son
TTITLE3=Betty and Dupree's Blues
TTITLE4=Blind Man
TTITLE5=Jesus Gonna Make Up My Dying Bed
TTITLE6=Blood Red River Blues
TTITLE7=Southern Exposure Blues
TTITLE8=Hard Time Blues
TTITLE9=Strange Fruit
TTITLE10=Gonna Live the Life
TTITLE11=One Meatball(ft. Josh White)
EXTD=
EXTT0=
EXTT1=
EXTT2=
EXTT3=
EXTT4=
EXTT5=
EXTT6=
EXTT7=
EXTT8=
EXTT9=
EXTT10=
EXTT11=
PLAYORDER=
